<svg xmlns="http://www.w3.org/2000/svg" width="48" height="48" viewBox="0 0 48 48"><g><path fill="#000000" d="M36.4 40.2C34.3 42.7 32 46 28.4 46c-3.6 0-4.6-2.9-8.5-3.1-3.7-.1-5.4 2.3-8.1 2.3-2.8 0-5.2-2.9-6.8-5.6C1.6 34.6.1 30.1.2 27.6c.1-2.2 1.2-4.5 3.3-6.1 2-.9 4.2-1.2 6.7-.6 1.8.5 3.2 1.4 4.5 2.4 1.2.9 2.7 2.1 4.4 2 1.7-.1 3.9-1.2 7.1-3.6 2.6-2.1 5.4-4.4 5.9-6.6.7-2.4.2-5.7-1.4-8.2-1.5-2.4-3.8-3.7-6.5-3.8H19c-1.2 0-2.1.5-2.2,0C19.4 5 21.9 3 25 3c3.2 0 5.7 1.4 7.7 4.4 1.4 2.1 2.4 4.7 2.4 6.9-.1 2.5-1.2 4.3-2.5 5.4z"/></g></svg>
