<svg xmlns="http://www.w3.org/2000/svg" width="48" height="48" viewBox="0 0 48 48"><g><path fill="#4285F4" d="M43.611 20.083H42V20H24v8h11.269C33.777 32.786 29.306 36 24 36c-6.627 0-12-5.373-12-12s5.373-12 12-12c2.93 0 5.605 1.045 7.715 2.767l6.556-6.557C34.607 6.365 29.614 4 24 4 12.954 4 4 12.954 4 24c0 11.046 8.954 20 20 20 10.542 0 19.217-7.708 19.948-17.5.035-.476.052-.954.052-1.433 0-1.358-.138-2.676-.389-3.984z"/><path fill="#34A853" d="M6.306 14.691l6.571 4.823C14.846 16.103 19.076 13 24 13c2.93 0 5.605 1.045 7.715 2.767l6.556-6.557C34.607 6.365 29.614 4 24 4 16.318 4 9.59 8.956 6.306 14.691z"/><path fill="#FBBC05" d="M24 44c5.176 0 9.952-1.682 13.704-4.566l-6.321-5.181C29.075 36.754 26.637 37.5 24 37.5c-5.285 0-9.759-3.448-11.378-8.223l-6.573 5.058C10.007 40.044 16.456 44 24 44z"/><path fill="#EA4335" d="M43.611 20.083H42V20H24v8h11.269c-1.367 3.819-5.137 6.5-9.269 6.5-5.285 0-9.759-3.448-11.378-8.223l-6.573 5.058C10.007 40.044 16.456 44 24 44c5.944 0 10.995-1.965 14.704-5.434l-6.321-5.181C29.075 36.754 26.637 37.5 24 37.5z"/></g></svg>
